<svg width="451" height="66" viewBox="0 0 451 66" fill="none" xmlns="http://www.w3.org/2000/svg">
<path d="M449.889 49.7108H438.901V64.6963H450.136V61.6384H442.296V58.5401H449.128V55.786H442.296V52.5864H449.889V49.7108ZM430.157 52.6067H434.457V49.7108H422.441V52.6067H426.741V64.757H430.157V52.6067ZM411.639 61.8814C409.704 61.8814 408.49 60.4031 408.49 57.9933V49.7108H405.095V58.0946C405.095 59.7971 405.783 61.4299 407.006 62.6338C408.229 63.8377 409.888 64.514 411.618 64.514C413.348 64.514 415.007 63.8377 416.23 62.6338C417.453 61.4299 418.14 59.7971 418.14 58.0946V49.7108H414.745V57.8111C414.745 60.2209 413.532 61.6992 411.639 61.6992V61.8814ZM396.556 52.4244H400.857V49.7108H388.841V52.6067H393.161V64.757H396.556V52.4244ZM381.001 64.5748H384.396V49.7108H381.001V64.5748ZM372.236 52.4244H376.557V49.7108H364.52V52.6067H368.841V64.757H372.236V52.4244ZM353.121 53.5179C353.121 52.7484 353.8 52.1206 354.952 52.1206C356.453 52.1478 357.902 52.6682 359.067 53.5989L360.796 51.1689C359.184 49.8637 357.163 49.1481 355.076 49.1438C352.216 49.1438 349.644 50.5613 349.644 53.7002C349.644 56.839 351.496 57.5681 354.767 58.3578C357.072 58.9046 357.565 59.3501 357.565 60.2209C357.565 61.0917 356.804 61.6992 355.508 61.6992C353.784 61.5985 352.159 60.8778 350.94 59.6741L348.882 62.1245C350.639 63.7836 352.97 64.7245 355.405 64.757C358.697 64.757 360.981 63.0155 360.981 60.0791C360.981 57.4871 359.273 56.2923 356.022 55.4822C353.635 54.9152 353.039 54.5102 353.039 53.5787L353.121 53.5179ZM340.858 59.2489L333.533 49.7108H330.302V64.6963H333.718V55.219L340.961 64.595H344.356V49.7108H341.002L340.858 59.2489ZM321.105 64.5748H324.5V49.7108H321.249L321.105 64.5748ZM304.48 54.571C304.48 56.0695 303.924 56.8998 301.476 56.8998H298.986V52.4851H301.538C303.595 52.4851 304.48 52.9509 304.48 54.5102V54.571ZM307.937 54.5102C307.937 51.0676 306.146 49.5286 301.352 49.5286H295.591V64.514H298.986V59.8361H301.496L304.871 64.6153H308.986L305.118 59.2691C306.067 58.9321 306.871 58.2873 307.398 57.4409C307.925 56.5944 308.144 55.5966 308.019 54.6115L307.937 54.5102ZM290.509 49.7108H279.521V64.6963H290.735V61.6384H282.978V58.5401H289.789V55.786H282.978V52.5864H290.571L290.509 49.7108ZM266.723 53.7609C266.723 52.9914 267.402 52.3637 268.555 52.3637C270.055 52.3908 271.504 52.9112 272.67 53.8419L274.398 51.4119C272.786 50.1067 270.765 49.3911 268.678 49.3868C265.818 49.3868 263.246 50.8043 263.246 53.9432C263.246 57.082 265.098 57.8111 268.369 58.6008C270.674 59.1476 271.168 59.5931 271.168 60.4639C271.168 61.3347 270.406 61.9422 269.11 61.9422C267.387 61.8415 265.761 61.1208 264.542 59.9171L262.485 62.3675C264.241 64.0266 266.573 64.9675 269.007 65C272.279 65 274.583 63.2585 274.583 60.3222C274.583 57.7301 272.875 56.5353 269.624 55.7253C267.238 55.1582 266.641 54.7532 266.641 53.8217L266.723 53.7609ZM251.744 54.3077L253.637 58.6413H249.831L251.744 54.3077ZM256.333 64.8178H259.954L253.37 49.8323H250.077L243.514 64.8178H247.115L248.534 61.5979H254.913L256.333 64.8178ZM231.148 64.8178H241.045V61.6182H234.625V49.7108H231.23L231.148 64.8178Z" fill="#3E4649"/>
<path d="M211.827 51.8979V55.7658H208V58.3984H211.827V62.2663H214.831V58.3984H218.638V55.7658H214.831V51.8979H211.827Z" fill="#00ABC8"/>
<path d="M446.679 28.2046H451V25.41H438.963V28.3059H443.284V40.4562H446.679V28.2046ZM429.313 37.3376C428.715 37.3384 428.124 37.2194 427.574 36.9878C427.025 36.7562 426.529 36.4169 426.117 35.9906C425.705 35.5643 425.385 35.0599 425.178 34.5082C424.97 33.9564 424.879 33.3688 424.91 32.7812C424.881 32.1708 424.981 31.5611 425.204 30.9907C425.427 30.4204 425.768 29.9018 426.205 29.4678C426.642 29.0337 427.166 28.6938 427.743 28.4694C428.321 28.245 428.94 28.141 429.56 28.1641C430.338 28.1797 431.103 28.3702 431.794 28.7212C432.486 29.0722 433.087 29.5743 433.552 30.1892L435.609 27.8198C434.546 26.5895 433.129 25.7057 431.544 25.2852C429.959 24.8648 428.283 24.9276 426.735 25.4653C425.188 26.0029 423.842 26.9902 422.877 28.2965C421.912 29.6028 421.372 31.1666 421.33 32.7812C421.307 33.8084 421.497 34.8294 421.888 35.7821C422.278 36.7348 422.862 37.5993 423.603 38.3229C424.344 39.0466 425.227 39.6143 426.198 39.9915C427.169 40.3687 428.208 40.5475 429.251 40.517C430.429 40.5004 431.59 40.2352 432.655 39.7391C433.72 39.243 434.664 38.5276 435.424 37.6414L433.243 35.4341C432.767 36.0664 432.147 36.5793 431.432 36.9312C430.717 37.283 429.927 37.4639 429.128 37.4591L429.313 37.3376ZM410.198 29.9057L412.091 34.2393H408.367L410.198 29.9057ZM414.787 40.4157H418.408L411.927 25.41H408.634L402.05 40.3955H405.672L407.091 37.1756H413.47L414.787 40.4157ZM395.013 30.4119C395.013 31.9105 394.478 32.7407 392.009 32.7407H389.54V28.1844H392.092C394.149 28.1844 395.013 28.6501 395.013 30.2094V30.4119ZM398.491 30.2094C398.491 26.7668 396.701 25.2278 391.906 25.2278H386.227V40.2132H389.643V35.5353H391.989L395.363 40.3145H399.478L395.61 34.9683C396.559 34.6313 397.363 33.9865 397.89 33.1401C398.418 32.2936 398.636 31.2958 398.511 30.3107L398.491 30.2094ZM374.211 29.8044L376.104 34.138H372.38L374.211 29.8044ZM378.82 40.3145H382.421L375.94 25.41H372.606L366.022 40.3955H369.643L371.042 37.1756H377.442L378.82 40.3145ZM360.302 28.1641H364.602V25.41H352.689V28.3059H356.989V40.4562H360.405L360.302 28.1641ZM343.018 29.7437L344.911 34.0773H341.208L343.018 29.7437ZM347.607 40.2537H351.228L344.747 25.41H341.455L334.87 40.3955H338.492L339.911 37.1756H346.29L347.607 40.2537ZM326.043 37.3376C325.446 37.3386 324.856 37.2195 324.307 36.9877C323.759 36.7559 323.264 36.4162 322.854 35.9896C322.443 35.563 322.126 35.0583 321.921 34.5066C321.715 33.9549 321.627 33.3678 321.661 32.7812C321.632 32.1726 321.731 31.5646 321.953 30.9957C322.175 30.4268 322.514 29.9091 322.949 29.4754C323.384 29.0417 323.905 28.7013 324.48 28.4756C325.055 28.25 325.671 28.1439 326.29 28.1641C327.072 28.1781 327.839 28.3679 328.535 28.7189C329.23 29.0699 329.835 29.5728 330.302 30.1892L332.36 27.8198C331.297 26.5895 329.879 25.7057 328.295 25.2852C326.71 24.8648 325.033 24.9276 323.486 25.4653C321.938 26.0029 320.593 26.9902 319.628 28.2965C318.663 29.6028 318.123 31.1666 318.08 32.7812C318.055 33.8074 318.242 34.828 318.631 35.7806C319.019 36.7333 319.601 37.598 320.34 38.3219C321.08 39.0459 321.961 39.6139 322.931 39.9913C323.901 40.3687 324.939 40.5476 325.982 40.517C327.197 40.517 328.398 40.2518 329.497 39.7406C330.597 39.2294 331.567 38.4848 332.339 37.5604L330.158 35.3531C329.682 35.9842 329.061 36.4962 328.346 36.848C327.631 37.1997 326.842 37.3813 326.043 37.3781V37.3376ZM300.426 37.3781C299.829 37.3789 299.237 37.2599 298.687 37.0283C298.138 36.7967 297.642 36.4574 297.23 36.0311C296.818 35.6048 296.499 35.1004 296.291 34.5487C296.084 33.9969 295.992 33.4093 296.023 32.8218C295.989 32.215 296.083 31.6079 296.298 31.0384C296.513 30.4688 296.846 29.9492 297.274 29.512C297.703 29.0748 298.219 28.7294 298.79 28.4974C299.361 28.2655 299.974 28.152 300.591 28.1641C301.39 28.1625 302.178 28.3448 302.893 28.6964C303.607 29.0481 304.228 29.5592 304.706 30.1892L306.764 27.8198C305.704 26.5862 304.288 25.6992 302.703 25.2768C301.119 24.8544 299.441 24.9166 297.894 25.4551C296.346 25.9936 295.002 26.9829 294.039 28.2915C293.076 29.6001 292.541 31.1661 292.505 32.7812C292.479 33.8074 292.666 34.828 293.055 35.7806C293.443 36.7333 294.025 37.598 294.765 38.3219C295.504 39.0459 296.386 39.6139 297.355 39.9913C298.325 40.3687 299.363 40.5476 300.406 40.517C301.622 40.517 302.822 40.2518 303.922 39.7406C305.021 39.2294 305.992 38.4848 306.764 37.5604L304.583 35.3531C304.107 35.9854 303.486 36.4983 302.771 36.8502C302.056 37.202 301.267 37.3829 300.468 37.3781H300.426ZM284.336 40.2942H287.731V25.41H284.336V40.2942ZM279.48 25.41H269.028V40.3955H272.423V34.5228H279.13V31.4852H272.423V28.2451H279.48V25.41ZM259.933 40.3955H263.328V25.41H259.933V40.3955ZM249.008 37.4389C248.41 37.4397 247.818 37.3206 247.269 37.0891C246.719 36.8575 246.223 36.5182 245.811 36.0919C245.399 35.6656 245.08 35.1612 244.872 34.6094C244.665 34.0576 244.574 33.4701 244.604 32.8825C244.575 32.2721 244.676 31.6624 244.898 31.092C245.121 30.5216 245.462 30.003 245.899 29.569C246.336 29.135 246.86 28.795 247.438 28.5706C248.015 28.3462 248.634 28.2423 249.254 28.2654C250.033 28.2809 250.797 28.4715 251.489 28.8225C252.181 29.1735 252.782 29.6756 253.246 30.2904L255.304 27.9211C254.244 26.6875 252.828 25.8005 251.243 25.3781C249.659 24.9557 247.981 25.0179 246.434 25.5564C244.886 26.0949 243.542 27.0842 242.579 28.3928C241.616 29.7014 241.081 31.2673 241.045 32.8825C241.019 33.9087 241.206 34.9293 241.595 35.8819C241.983 36.8345 242.565 37.6992 243.304 38.4232C244.044 39.1471 244.925 39.7151 245.895 40.0925C246.865 40.47 247.903 40.6488 248.946 40.6182C250.173 40.609 251.383 40.3296 252.487 39.8005C253.591 39.2714 254.56 38.506 255.324 37.5604L253.143 35.3531C252.668 35.9854 252.047 36.4983 251.332 36.8502C250.617 37.202 249.828 37.3829 249.028 37.3781L249.008 37.4389ZM230.098 29.8247L231.991 34.1583H228.144L230.098 29.8247ZM234.749 40.2942H238.37L231.703 25.41H228.411L221.827 40.3955H225.448L226.868 37.1756H233.246L234.749 40.2942ZM216.601 30.6347C216.601 32.0927 216.127 33.2268 213.679 33.2268H211.395V28.1844H213.329C215.49 28.1844 216.601 28.7716 216.601 30.6347ZM220.099 30.6347C220.099 27.1921 218.041 25.3088 213.391 25.3088H208V40.2942H211.395V36.1226H213.453C217.856 36.1226 220.119 34.6038 220.119 30.6347" fill="#3E4649"/>
<path d="M105.093 46.674C103.172 48.5454 100.88 49.9969 98.3642 50.9356C95.8482 51.8743 93.1633 52.2795 90.4811 52.1255C87.3289 52.0144 84.2519 51.1356 81.5193 49.5659C78.7867 47.9963 76.4815 45.7836 74.8054 43.1213C73.1292 40.459 72.1332 37.4281 71.9042 34.2936C71.6753 31.1591 72.2204 28.0165 73.492 25.1404C74.7636 22.2644 76.7229 19.7425 79.1987 17.7952C81.6744 15.8478 84.5913 14.5344 87.6942 13.9697C90.797 13.405 93.9915 13.6062 96.9983 14.5558C100.005 15.5053 102.733 17.1742 104.943 19.4167L111.895 7.65862C105.414 2.4122 97.2368 -0.301134 88.8934 0.0265644C80.1128 0.0265646 71.6919 3.50194 65.4832 9.68815C59.2744 15.8744 55.7863 24.2647 55.7863 33.0133C55.7863 41.7619 59.2744 50.1522 65.4832 56.3384C71.6919 62.5246 80.1128 66 88.8934 66C97.8406 66 106.058 63.7125 111.937 58.6672L105.093 46.674Z" fill="black"/>
<path d="M120.627 1.18091V51.5482V65.0806H135.647H164.827V51.5482H135.647V1.18091H120.627Z" fill="black"/>
<path d="M27.2709 1.22363H0V65.102H15.2554V54.0494V29.3789V14.7989H25.1468C27.6708 14.9165 30.0524 15.9983 31.7969 17.8196C33.5414 19.6409 34.5147 22.0618 34.5147 24.5794C34.5147 27.097 33.5414 29.5179 31.7969 31.3392C30.0524 33.1606 27.6708 34.2424 25.1468 34.36H18.152V47.9352H26.9705C33.0687 47.7945 38.8718 45.292 43.1487 40.9587C47.4256 36.6253 49.8397 30.8022 49.8788 24.7247C49.9179 18.6473 47.5789 12.7938 43.3581 8.40617C39.1372 4.01859 33.3667 1.44219 27.2709 1.22363Z" fill="black"/>
<path d="M188 1.18091H173.002V15.6326H188V1.18091Z" fill="#00ABC8"/>
<path d="M188 18.5188H173.002V65.0807H188V18.5188Z" fill="black"/>
</svg>
